<?xml version="1.0" encoding="UTF-8" standalone="no"?>
<!-- Created with Inkscape (http://www.inkscape.org/) -->

<svg
   width="1207.826mm"
   height="426.7117mm"
   viewBox="0 0 1207.826 426.7117"
   version="1.1"
   id="svg1"
   inkscape:version="1.3 (0e150ed6c4, 2023-07-21)"
   sodipodi:docname="new_wrenly_header.svg"
   xmlns:inkscape="http://www.inkscape.org/namespaces/inkscape"
   xmlns:sodipodi="http://sodipodi.sourceforge.net/DTD/sodipodi-0.dtd"
   xmlns="http://www.w3.org/2000/svg"
   xmlns:svg="http://www.w3.org/2000/svg">
  <sodipodi:namedview
     id="namedview1"
     pagecolor="#ffffff"
     bordercolor="#000000"
     borderopacity="0.25"
     inkscape:showpageshadow="2"
     inkscape:pageopacity="0.0"
     inkscape:pagecheckerboard="0"
     inkscape:deskcolor="#d1d1d1"
     inkscape:document-units="mm"
     inkscape:zoom="0.13552101"
     inkscape:cx="2542.0413"
     inkscape:cy="3036.4296"
     inkscape:window-width="2560"
     inkscape:window-height="1494"
     inkscape:window-x="-11"
     inkscape:window-y="-11"
     inkscape:window-maximized="1"
     inkscape:current-layer="layer1" />
  <defs
     id="defs1">
    <mask
       id="mask0_1069_230-8-9-4-0"
       maskUnits="userSpaceOnUse"
       x="0"
       y="0"
       width="130"
       height="130">
      <rect
         x="0.286865"
         width="129.713"
         height="129.713"
         rx="64.856598"
         fill="#84dc9d"
         id="rect889-1-9-3-5"
         y="0" />
    </mask>
    <filter
       id="filter0_f_1069_230-0-9-8-6"
       x="-8.00348"
       y="-8.29035"
       width="146.29401"
       height="146.29401"
       filterUnits="userSpaceOnUse"
       color-interpolation-filters="sRGB">
      <feFlood
         flood-opacity="0"
         result="BackgroundImageFix"
         id="feFlood916-9-4-4-3" />
      <feBlend
         mode="normal"
         in="SourceGraphic"
         in2="BackgroundImageFix"
         result="shape"
         id="feBlend918-5-2-8-8" />
      <feGaussianBlur
         stdDeviation="4.14517"
         result="effect1_foregroundBlur_1069_230"
         id="feGaussianBlur920-1-4-9-2" />
    </filter>
    <linearGradient
       id="paint0_linear_1069_230-8-9-4-0"
       x1="62.5751"
       y1="33.597401"
       x2="60.4697"
       y2="185.61099"
       gradientUnits="userSpaceOnUse">
      <stop
         stop-color="white"
         id="stop923-1-9-4-7" />
      <stop
         offset="1"
         id="stop925-4-1-9-1" />
    </linearGradient>
  </defs>
  <g
     inkscape:label="Layer 1"
     inkscape:groupmode="layer"
     id="layer1"
     transform="translate(543.71876,129.38138)">
    <g
       opacity="0.5"
       id="g898-0-8-6-1"
       transform="matrix(1.5605254,0,0,1.5607254,-404.87187,-51.758246)"
       style="stroke-width:0.216653">
      <mask
         id="mask1-8-9-2"
         maskUnits="userSpaceOnUse"
         x="0"
         y="0"
         width="130"
         height="130">
        <rect
           x="0.286865"
           width="129.713"
           height="129.713"
           rx="64.856598"
           fill="#84dc9d"
           id="rect1-2-9-7-0"
           y="0" />
      </mask>
      <g
         mask="url(#mask0_1069_230-8-9-4-0)"
         id="g896-3-8-3-8"
         style="stroke-width:0.216653">
        <g
           style="mix-blend-mode:luminosity;stroke-width:0.0219413;filter:url(#filter0_f_1069_230-0-9-8-6)"
           filter="url(#filter0_f_1069_230)"
           id="g894-6-0-8-0">
          <rect
             x="2.4976299"
             y="2.2107601"
             width="125.292"
             height="125.292"
             rx="62.020256"
             stroke="url(#paint0_linear_1069_230)"
             stroke-width="0.0219413"
             id="rect892-7-8-3-6"
             style="fill:none;stroke:none;stroke-opacity:1" />
        </g>
      </g>
    </g>
    <path
       d="m -269.23434,162.99124 c -35.71848,30.26563 -78.15593,47.84098 -114.08224,39.72718 0,-22.72672 47.9258,-69.70294 114.08224,-39.72718 z"
       fill="#ffffff"
       id="path902-8-4-3-4"
       style="fill:#83db9d;fill-opacity:0.501961;stroke-width:1.27208" />
    <path
       d="m -394.93624,169.03406 c -226.02782,388.51442 -3.50689,-279.7764 146.18057,-285.18035 43.82598,-1.5825 76.34642,22.678599 121.81459,45.371832 -19.55747,3.429211 -60.13495,28.362592 -65.98142,100.664855 -2.88438,35.668717 -23.0369,73.015073 -51.09321,104.094303 -43.0331,47.66969 -104.66059,80.59544 -151.09208,70.10937 -7.66429,-34.29539 83.32366,-89.49272 169.80669,-12.4007"
       stroke="#23846b"
       stroke-width="3.50001"
       stroke-linecap="round"
       stroke-linejoin="round"
       id="path904-2-0-0-3"
       style="fill:#23846b;fill-opacity:1;stroke:#ffffff;stroke-width:13.993;stroke-miterlimit:4;stroke-dasharray:none;stroke-opacity:1"
       sodipodi:nodetypes="ccccscc" />
    <path
       d="m -536.72342,167.42282 c 88.54849,-82.366217 145.33511,-153.235735 145.33511,-153.235735 25.84257,-29.70141 39.01049,-54.393437 77.67511,-54.33941 68.3452,0.09451 78.69488,77.926379 50.98063,119.253025 -84.52678,126.04448 -223.47232,86.1841 -273.99085,88.32212 z"
       fill="url(#paint1_linear_1069_230)"
       stroke="#23846b"
       stroke-width="3.50001"
       stroke-linejoin="round"
       id="path906-1-0-6-0"
       style="fill:#23846b;fill-opacity:1;stroke:#ffffff;stroke-width:13.993;stroke-miterlimit:4;stroke-dasharray:none;stroke-opacity:1" />
    <path
       d="m -249.81657,-59.974802 c 5.11731,-6.580108 19.78528,-20.167732 35.87523,-0.41865"
       stroke="#23846b"
       stroke-width="3.50001"
       stroke-linecap="round"
       id="path908-5-7-6-2"
       style="fill:#000000;fill-opacity:0;stroke:#ffffff;stroke-width:11.1125;stroke-miterlimit:4;stroke-dasharray:none;stroke-opacity:1" />
    <rect
       style="fill:#ffffff;fill-opacity:1;stroke:none;stroke-width:1.33067;stroke-opacity:1"
       id="rect3-0-9-6"
       width="71.301788"
       height="26.283319"
       x="-290.83795"
       y="168.76912"
       rx="5.1891217"
       ry="2.1326823" />
    <path
       d="m -128.32321,-98.293294 45.065342,-25.110786"
       stroke="#23846b"
       stroke-width="3.75619"
       stroke-linecap="round"
       stroke-linejoin="round"
       id="path910-9-5-3-0"
       style="fill:none;stroke:#23846b;stroke-width:11.9546;stroke-miterlimit:4;stroke-dasharray:none;stroke-opacity:1" />
    <path
       d="m -124.53321,-73.312474 c 2.0515,-0.436906 28.36939,0.283951 41.275342,0.69932"
       stroke="#23846b"
       stroke-width="3.75619"
       stroke-linecap="round"
       stroke-linejoin="round"
       id="path912-8-4-8-30"
       style="fill:none;stroke:#23846b;stroke-width:11.9546;stroke-miterlimit:4;stroke-dasharray:none;stroke-opacity:1" />
    <path
       d="m -126.25816,-48.273922 35.120339,24.227367"
       stroke="#23846b"
       stroke-width="3.75619"
       stroke-linecap="round"
       stroke-linejoin="round"
       id="path914-4-3-0-8"
       style="fill:none;stroke:#23846b;stroke-width:11.9546;stroke-miterlimit:4;stroke-dasharray:none;stroke-opacity:1" />
    <g
       style="fill:none"
       id="g19"
       transform="matrix(4.3371494,0,0,4.3371494,655.58121,-380.33492)">
      <path
         d="m -144.78817,90.198515 h 8.602 l -11.451,37.418695 h -8.333 l -6.613,-24.4035 -6.667,24.4035 h -8.2789 l -11.5051,-37.418695 h 8.817 l 7.0428,25.867695 7.0432,-25.867695 h 7.311 l 7.043,25.867695 z"
         fill="#1b3f25"
         id="path1"
         style="fill:#23846b;fill-opacity:1" />
      <path
         d="m -116.56117,99.526015 h 1.183 v 8.134495 h -1.183 c -4.785,0 -7.419,2.7658 -7.419,7.0499 v 12.9068 h -7.85 V 99.959915 h 7.85 v 3.145295 c 1.935,-2.27759 4.462,-3.579195 7.419,-3.579195 z"
         fill="#1b3f25"
         id="path2"
         style="fill:#23846b;fill-opacity:1" />
      <path
         d="m -62.078178,99.309115 c 6.29,0 10.483,4.175695 10.483,10.520595 v 17.7875 h -7.849 v -15.1302 c 0,-3.3623 -2.097,-5.5315 -5.322,-5.5315 -3.334,0 -5.646,2.2235 -5.646,5.64 v 15.0217 h -7.849 V 99.959915 h 7.849 v 2.765695 c 2.151,-2.22339 4.947,-3.416495 8.334,-3.416495 z"
         fill="#1b3f25"
         id="path3"
         style="fill:#23846b;fill-opacity:1" />
      <path
         d="M -42.641178,127.61721 V 88.571615 h 7.849 v 39.045595 z"
         fill="#1b3f25"
         id="path4"
         style="fill:#23846b;fill-opacity:1" />
      <path
         d="m -6.797178,99.959915 h 8.763 l -13.064,32.104095 c -1.559,4.013 -5,6.5076 -8.817,6.5076 -2.581,0 -5.591,-1.0846 -7.527,-2.82 l 3.011,-6.1822 c 0.806,0.8135 2.043,1.3558 3.226,1.3558 1.182,0 2.258,-0.5966 2.956,-2.0608 l 0.807,-1.7353 -10.968,-27.169195 h 8.979 l 6.344,17.570495 z"
         fill="#1b3f25"
         id="path5"
         style="fill:#23846b;fill-opacity:1" />
      <path
         d="m -89.006178,104.13441 c 0.527,0.5424 1.203,1.3164 1.616,1.8959 l -14.594992,14.4204 c 2.835992,1.5251 6.034992,1.0216 8.492992,-1.4071 2.227,-2.201 2.978,-4.9927 2.771,-7.0656 l 6.962,-0.4261 c 0.221,4.4124 -1.499,8.9963 -5.109,12.5635 -6.222,6.1476 -15.270992,6.2835 -21.064992,0.3175 -5.643,-5.811 -5.438,-14.6674 0.515,-20.5494 5.876,-5.806095 14.580992,-5.753795 20.411992,0.2509 z m -15.748992,4.7063 c -2.112,2.0871 -2.448,5.1515 -0.917,7.8902 l 8.794992,-8.6902 c -2.759,-1.601 -5.765992,-1.2872 -7.877992,0.8 z"
         fill="#1b3f25"
         id="path6"
         style="fill:#23846b;fill-opacity:1" />
      <path
         d="m -109.03417,117.39091 13.173992,-12.8193 3.826,2.2168 -13.457992,13.7832 z"
         fill="#1b3f25"
         id="path7"
         style="fill:#23846b;fill-opacity:1" />
    </g>
  </g>
</svg>
